# xmcd
#
# Track frame offsets:
# 150
# 10845
# 23840
# 33797
# 46187
# 67280
# 77540
# 89157
# 105917
# 125665
# 150575
# 161280
# 173902
# 185530
# 191250
# 206165
# 220785
# 238187
# 256952
# 267070
# 286075
# 297447
# 309067
# 320727
#
# Disc length: 4414 seconds
#
#
# Revision: 2
# Processed by: cddbd v1.5.2PL0 Copyright (c) Steve Scherf et al.
# Submitted via: FreeRIP 2.951 
#
DISCID=48113c18
DTITLE=Various Artist - Root Damage - CD 2
DYEAR=2003
DGENRE=Blues
TTITLE0=Je and Ill With Joe Coleman - Intro and Kiss And Kill
TTITLE1=Oddball's Band - Hangdog Blues
TTITLE2=Interstate Leisure Kings - Best Liquor Store
TTITLE3=Big Foot Chester - Harpoon Man
TTITLE4=T-Model Ford - Morning Gown
TTITLE5=Bob Log III - Daddy Log's
TTITLE6=Tearjerkers - Bank, Gun, Jail
TTITLE7=Darlins - Take Me Dancin'
TTITLE8=Wreckless Eric - Harry's Flat
TTITLE9=Compulsive Gamblers - Two Thieves
TTITLE10=Holly Golightly and Dan Melchior - I'll Follow Her Down
TTITLE11=Jeffrey Lee Pierce - Goodbye Johnny
TTITLE12=Gibson Bros - Memphis Chicken
TTITLE13=Revelators - Old Slew Foot
TTITLE14=Panther Burns - Fun Mob
TTITLE15=Geraldine Fibbers - She's A Dog
TTITLE16=Lisa Marr Experiment - Shooting Stars
TTITLE17=Robert Cage - Liza Jane
TTITLE18='68 Comeback - '68
TTITLE19=Worddogs - Our Good Man
TTITLE20=Frank Roach - Alabama
TTITLE21=Dan Melchior's Broke Review - Laughing To Keep From Crying
TTITLE22=Pearlene - Burying Ground
TTITLE23=Beck - Leave Me On The Moon
EXTD=
EXTT0=
EXTT1=
EXTT2=
EXTT3=
EXTT4=
EXTT5=
EXTT6=
EXTT7=
EXTT8=
EXTT9=
EXTT10=
EXTT11=
EXTT12=
EXTT13=
EXTT14=
EXTT15=
EXTT16=
EXTT17=
EXTT18=
EXTT19=
EXTT20=
EXTT21=
EXTT22=
EXTT23=
PLAYORDER=
